<?xml version="1.0" standalone="no"?>
<!DOCTYPE svg PUBLIC "-//W3C//DTD SVG 20010904//EN"
 "http://www.w3.org/TR/2001/REC-SVG-20010904/DTD/svg10.dtd">
<svg version="1.0" xmlns="http://www.w3.org/2000/svg"
 width="512.000000pt" height="512.000000pt" fill="FFB46B" viewBox="0 0 512.000000 512.000000"
 preserveAspectRatio="xMidYMid meet">

<g transform="translate(0.000000,512.000000) scale(0.100000,-0.100000)"
fill="#FFB46B" stroke="none">
<path d="M481 4775 c-15 -59 -63 -110 -126 -133 -69 -24 -68 -48 3 -74 43 -16
59 -29 82 -65 16 -25 32 -58 35 -73 14 -61 58 -65 69 -6 9 50 58 102 128 137
32 16 58 35 58 42 0 20 -22 37 -47 37 -34 0 -92 57 -122 120 -36 74 -64 80
-80 15z m49 -84 c0 -5 18 -27 41 -49 l40 -41 -47 -43 c-51 -47 -64 -55 -64
-39 0 6 -16 28 -35 50 l-35 39 42 44 c43 46 58 55 58 39z"/>
<path d="M2483 4803 c-18 -10 -51 -36 -75 -58 -24 -22 -139 -128 -256 -234
-163 -149 -212 -199 -210 -215 6 -38 37 -30 97 26 53 50 101 93 344 314 117
106 144 124 178 124 24 0 77 -32 124 -76 54 -50 255 -234 294 -269 25 -22 77
-69 116 -105 38 -36 110 -101 159 -145 48 -44 98 -89 110 -100 12 -11 67 -60
121 -110 55 -49 131 -119 170 -155 38 -36 113 -104 165 -150 52 -47 122 -110
154 -140 33 -30 67 -62 75 -70 9 -8 54 -49 101 -90 46 -41 93 -85 104 -96 19
-20 233 -214 396 -359 37 -33 75 -72 84 -87 42 -69 -7 -159 -87 -158 -28 1
-56 17 -104 59 -90 82 -376 342 -468 426 -123 114 -144 132 -186 169 -19 16
-59 52 -89 80 -30 28 -102 94 -160 146 -57 52 -134 122 -170 155 -36 33 -110
101 -165 150 -54 50 -107 97 -115 105 -9 8 -43 40 -76 70 -32 30 -82 75 -109
99 -28 25 -77 70 -111 100 -33 31 -78 72 -100 91 -21 19 -80 72 -130 118 -50
45 -97 82 -104 82 -10 0 -136 -105 -190 -160 -8 -8 -64 -60 -125 -114 -60 -55
-150 -136 -200 -181 -84 -77 -164 -149 -224 -203 -14 -13 -48 -44 -76 -70 -70
-65 -145 -133 -260 -237 -54 -49 -110 -101 -124 -114 -98 -89 -548 -498 -739
-671 -45 -41 -93 -80 -105 -87 -89 -50 -185 57 -131 145 9 15 47 54 84 87 163
145 377 339 396 359 11 11 58 55 105 96 46 41 86 77 89 80 9 11 146 135 185
169 22 19 65 57 95 85 30 28 102 94 159 146 213 194 235 216 228 234 -5 11
-15 16 -30 14 -15 -2 -149 -117 -343 -293 -175 -159 -370 -337 -434 -395 -217
-196 -475 -433 -536 -492 -72 -68 -90 -115 -72 -185 28 -114 171 -161 263 -87
21 16 46 35 56 43 19 13 19 -9 19 -1028 l0 -1041 -77 0 c-103 0 -146 -13 -198
-61 -47 -44 -75 -107 -75 -170 0 -76 -76 -69 801 -69 704 0 789 2 797 16 13
23 291 23 304 0 8 -14 141 -16 1307 -16 1175 0 1299 2 1305 16 24 61 -9 168
-69 223 -52 48 -95 61 -197 61 l-78 0 0 1040 c0 991 1 1040 18 1031 9 -5 26
-19 37 -31 49 -55 148 -66 211 -24 49 33 60 49 73 99 7 28 7 53 -1 82 -11 46
-50 87 -240 258 l-98 87 0 509 0 509 43 0 c34 0 49 6 68 26 22 24 24 34 27
156 3 87 0 140 -9 159 -24 58 -30 59 -463 59 -285 0 -402 -3 -421 -12 -46 -21
-55 -54 -55 -198 l0 -132 29 -29 c23 -23 39 -29 70 -29 l41 0 0 -201 c0 -188
-1 -201 -17 -188 -21 17 -107 95 -188 170 -33 30 -235 215 -450 410 -214 194
-409 372 -433 394 -60 55 -99 75 -152 75 -25 0 -60 -8 -77 -17z m164 -456 c64
-60 734 -670 1172 -1067 58 -52 142 -129 187 -170 46 -41 155 -140 243 -220
l160 -145 1 -1072 0 -1073 -645 0 -645 0 0 373 c0 225 -4 397 -11 433 -38 207
-206 388 -410 440 -255 66 -528 -62 -638 -298 -22 -46 -44 -110 -50 -142 -7
-36 -11 -208 -11 -433 l0 -373 -645 0 -645 0 0 1073 1 1072 167 151 c177 160
846 768 922 838 73 67 598 545 680 618 41 37 78 68 82 68 3 0 42 -33 85 -73z
m1584 -954 c13 -17 13 -17 -6 -3 -11 8 -22 16 -24 17 -2 2 0 3 6 3 6 0 17 -8
24 -17z m-1784 -1619 c-3 -3 -12 -4 -19 -1 -8 3 -5 6 6 6 11 1 17 -2 13 -5z
m350 -40 c-3 -3 -12 -4 -19 -1 -8 3 -5 6 6 6 11 1 17 -2 13 -5z m-690 -266
c-3 -8 -6 -5 -6 6 -1 11 2 17 5 13 3 -3 4 -12 1 -19z m910 0 c-3 -8 -6 -5 -6
6 -1 11 2 17 5 13 3 -3 4 -12 1 -19z"/>
<path d="M2428 3704 c-194 -47 -356 -203 -414 -399 -25 -85 -23 -230 5 -315
75 -237 295 -400 541 -400 250 0 474 170 546 415 24 80 24 220 0 300 -73 247
-298 416 -551 414 -38 0 -96 -7 -127 -15z m102 -278 c0 -210 -2 -235 -17 -238
-9 -2 -114 -2 -235 0 l-218 3 0 28 c0 83 65 213 150 298 74 74 211 140 298
142 l22 1 0 -234z m155 219 c127 -33 240 -119 309 -234 36 -60 66 -147 66
-192 l0 -28 -218 -3 c-121 -2 -226 -2 -235 0 -15 3 -17 28 -17 238 0 267 -9
246 95 219z m-155 -760 c0 -268 9 -247 -95 -220 -121 32 -228 110 -300 218
-40 60 -75 155 -75 204 l0 33 235 0 235 0 0 -235z m530 202 c0 -49 -35 -144
-75 -204 -73 -110 -178 -186 -300 -218 -104 -27 -95 -48 -95 220 l0 235 235 0
235 0 0 -33z"/>
<path d="M1357 2570 c-114 -20 -235 -103 -294 -201 -59 -98 -64 -138 -61 -500
l3 -324 425 0 425 0 0 350 c0 339 -1 352 -22 405 -76 186 -283 304 -476 270z
m43 -224 c0 -99 -4 -166 -10 -168 -5 -1 -82 -2 -171 0 l-160 3 6 32 c4 18 18
58 32 90 46 102 182 205 276 206 l27 1 0 -164z m165 143 c104 -39 208 -163
230 -276 l7 -33 -171 0 -171 0 0 165 0 165 25 0 c13 0 49 -9 80 -21z m-165
-544 l0 -165 -170 0 -170 0 0 165 0 165 170 0 170 0 0 -165z m400 0 l0 -165
-170 0 -170 0 0 165 0 165 170 0 170 0 0 -165z"/>
<path d="M3604 2565 c-163 -35 -289 -154 -329 -311 -13 -50 -15 -118 -13 -385
l3 -324 425 0 425 0 3 314 c1 185 -2 338 -8 370 -32 172 -178 312 -356 341
-71 12 -73 12 -150 -5z m56 -220 l0 -165 -171 0 -171 0 7 33 c28 143 185 294
308 296 l27 1 0 -165z m165 144 c107 -40 205 -158 230 -276 l6 -32 -160 -3
c-89 -2 -166 -1 -171 0 -6 2 -10 69 -10 168 l0 164 25 0 c13 0 49 -9 80 -21z
m-165 -544 l0 -165 -170 0 -170 0 0 165 0 165 170 0 170 0 0 -165z m400 0 l0
-165 -170 0 -170 0 0 165 0 165 170 0 170 0 0 -165z"/>
<path d="M926 4618 c-2 -7 -9 -33 -16 -58 -25 -93 -79 -148 -184 -186 -70 -25
-82 -52 -31 -67 107 -31 153 -77 204 -202 21 -53 33 -71 49 -73 18 -3 23 3 28
37 14 86 81 159 207 222 75 38 73 57 -7 83 -75 24 -126 74 -174 174 -36 73
-67 102 -76 70z m146 -257 l46 -35 -43 -28 c-48 -32 -125 -111 -125 -129 0 -7
-17 15 -39 48 -21 32 -56 74 -77 92 -22 19 -34 35 -27 38 34 13 98 69 121 107
l27 43 35 -51 c20 -28 56 -66 82 -85z"/>
<path d="M492 4273 c-6 -10 -13 -32 -16 -50 -9 -42 -49 -81 -113 -109 -28 -13
-54 -28 -58 -34 -10 -16 14 -40 41 -40 38 0 100 -64 124 -128 12 -31 27 -60
33 -64 14 -8 37 9 37 29 0 27 39 90 72 115 18 14 52 35 76 47 56 28 52 48 -15
72 -56 22 -87 55 -121 132 -22 49 -44 60 -60 30z m73 -159 l43 -46 -49 -47
-49 -48 -20 32 c-11 17 -28 40 -40 50 -20 18 -20 18 23 61 23 24 44 43 46 44
2 0 23 -21 46 -46z"/>
</g>
</svg>
