<svg width="446" height="66" viewBox="0 0 446 66" fill="none" xmlns="http://www.w3.org/2000/svg">
<path d="M48.9777 65L41.1428 44.8036H15.6361L7.84485 65H0.358246L25.2556 1.10268H31.9152L56.6384 65H48.9777ZM38.923 38.231L31.4799 18.1652C31.3058 17.6429 31.0156 16.7868 30.6094 15.5971C30.2321 14.4074 29.8404 13.1741 29.4341 11.8973C29.0279 10.6205 28.6942 9.5904 28.433 8.80692C28.1428 9.99665 27.8236 11.1864 27.4754 12.3761C27.1562 13.5368 26.837 14.625 26.5178 15.6406C26.1986 16.6272 25.923 17.4687 25.6908 18.1652L18.1172 38.231H38.923ZM67.5636 1.36384H85.5837C93.5346 1.36384 99.5123 2.55357 103.517 4.93303C107.521 7.3125 109.523 11.3605 109.523 17.077C109.523 19.5435 109.045 21.7634 108.087 23.7366C107.158 25.6808 105.795 27.2913 103.996 28.5681C102.196 29.8449 99.9766 30.7299 97.3359 31.2232V31.6585C100.122 32.0937 102.588 32.8917 104.735 34.0525C106.883 35.2132 108.566 36.8382 109.785 38.9275C111.003 41.0167 111.613 43.6719 111.613 46.8929C111.613 50.8103 110.699 54.1183 108.871 56.817C107.071 59.5156 104.518 61.5614 101.21 62.9542C97.9018 64.3181 93.9844 65 89.4576 65H67.5636V1.36384ZM74.9632 28.6551H87.1507C92.6931 28.6551 96.5234 27.7411 98.6417 25.9129C100.789 24.0848 101.863 21.4152 101.863 17.904C101.863 14.2768 100.586 11.6652 98.0324 10.0692C95.5078 8.47321 91.4743 7.67522 85.9319 7.67522H74.9632V28.6551ZM74.9632 34.8795V58.6886H88.1953C93.8538 58.6886 97.8583 57.5859 100.209 55.3806C102.559 53.1462 103.734 50.1429 103.734 46.3705C103.734 43.9621 103.198 41.9018 102.124 40.1897C101.079 38.4777 99.3672 37.1719 96.9877 36.2723C94.6373 35.3437 91.4888 34.8795 87.5424 34.8795H74.9632ZM182.474 33.0949C182.474 37.9989 181.85 42.4676 180.603 46.5011C179.355 50.5056 177.498 53.9587 175.031 56.8605C172.594 59.7333 169.561 61.9531 165.934 63.5201C162.307 65.0871 158.099 65.8705 153.311 65.8705C148.378 65.8705 144.069 65.0871 140.384 63.5201C136.728 61.9531 133.681 59.7187 131.243 56.817C128.835 53.9152 127.021 50.4475 125.802 46.4141C124.613 42.3806 124.018 37.9118 124.018 33.0078C124.018 26.5078 125.092 20.8058 127.239 15.9018C129.386 10.9978 132.636 7.18192 136.989 4.45424C141.371 1.72656 146.855 0.362721 153.442 0.362721C159.739 0.362721 165.035 1.71205 169.329 4.41071C173.653 7.10937 176.917 10.9107 179.123 15.8147C181.357 20.6897 182.474 26.4498 182.474 33.0949ZM131.809 33.0949C131.809 38.4922 132.578 43.1641 134.116 47.1105C135.654 51.0569 138.004 54.1038 141.167 56.2511C144.359 58.3984 148.407 59.4721 153.311 59.4721C158.244 59.4721 162.278 58.3984 165.412 56.2511C168.575 54.1038 170.911 51.0569 172.42 47.1105C173.929 43.1641 174.683 38.4922 174.683 33.0949C174.683 24.8828 172.956 18.4699 169.503 13.856C166.079 9.21317 160.725 6.89174 153.442 6.89174C148.509 6.89174 144.446 7.95089 141.254 10.0692C138.062 12.1875 135.683 15.2054 134.116 19.1228C132.578 23.0112 131.809 27.6685 131.809 33.0949ZM246.894 1.36384V42.5402C246.894 47.0379 245.98 51.0424 244.152 54.5536C242.353 58.0647 239.625 60.8359 235.969 62.8672C232.312 64.8694 227.728 65.8705 222.214 65.8705C214.35 65.8705 208.358 63.7377 204.238 59.4721C200.146 55.2065 198.1 49.5045 198.1 42.3661V1.36384H205.544V42.5837C205.544 47.981 206.965 52.1451 209.809 55.0759C212.682 58.0067 216.962 59.4721 222.65 59.4721C226.538 59.4721 229.715 58.7757 232.182 57.3828C234.677 55.9609 236.52 53.9877 237.71 51.4632C238.929 48.9096 239.538 45.9643 239.538 42.6272V1.36384H246.894ZM285.415 65H277.972V7.89286H257.95V1.36384H305.35V7.89286H285.415V65ZM390.445 1.36384V42.5402C390.445 47.0379 389.531 51.0424 387.703 54.5536C385.904 58.0647 383.176 60.8359 379.52 62.8672C375.864 64.8694 371.279 65.8705 365.766 65.8705C357.902 65.8705 351.91 63.7377 347.789 59.4721C343.698 55.2065 341.652 49.5045 341.652 42.3661V1.36384H349.095V42.5837C349.095 47.981 350.517 52.1451 353.36 55.0759C356.233 58.0067 360.513 59.4721 366.201 59.4721C370.089 59.4721 373.267 58.7757 375.733 57.3828C378.229 55.9609 380.071 53.9877 381.261 51.4632C382.48 48.9096 383.089 45.9643 383.089 42.6272V1.36384H390.445ZM445.333 48.0681C445.333 51.8404 444.39 55.0614 442.503 57.731C440.646 60.3717 438.035 62.3884 434.669 63.7812C431.302 65.1741 427.342 65.8705 422.786 65.8705C420.377 65.8705 418.099 65.7545 415.952 65.5223C413.805 65.2902 411.831 64.9565 410.032 64.5212C408.233 64.0859 406.652 63.5491 405.288 62.9107V55.8158C407.464 56.7154 410.119 57.5569 413.253 58.3404C416.387 59.0949 419.666 59.4721 423.09 59.4721C426.282 59.4721 428.981 59.0513 431.186 58.2098C433.392 57.3393 435.06 56.106 436.192 54.51C437.353 52.885 437.933 50.9408 437.933 48.6775C437.933 46.5011 437.454 44.6875 436.497 43.2366C435.539 41.7567 433.943 40.4219 431.709 39.2321C429.503 38.0134 426.486 36.7221 422.655 35.3583C419.956 34.4007 417.577 33.356 415.517 32.2243C413.456 31.0636 411.73 29.7578 410.337 28.3069C408.944 26.856 407.885 25.173 407.16 23.2578C406.463 21.3426 406.115 19.1518 406.115 16.6853C406.115 13.2902 406.971 10.3884 408.683 7.97991C410.424 5.54241 412.818 3.68527 415.865 2.40848C418.941 1.10268 422.467 0.449774 426.442 0.449774C429.837 0.449774 432.971 0.768971 435.844 1.40736C438.746 2.04576 441.401 2.90178 443.809 3.97544L441.502 10.3304C439.21 9.37277 436.772 8.57477 434.19 7.93638C431.636 7.29799 428.996 6.97879 426.268 6.97879C423.54 6.97879 421.233 7.38504 419.347 8.19754C417.49 8.98102 416.068 10.0982 415.081 11.5491C414.095 13 413.602 14.7266 413.602 16.7288C413.602 18.9632 414.066 20.8203 414.994 22.3002C415.952 23.7801 417.461 25.1004 419.521 26.2612C421.611 27.3929 424.367 28.5826 427.791 29.8304C431.535 31.1942 434.712 32.6451 437.324 34.183C439.935 35.692 441.923 37.5491 443.287 39.7545C444.651 41.9308 445.333 44.702 445.333 48.0681Z" fill="url(#paint0_linear_202_3711)" fill-opacity="0.1"/>
<defs>
<linearGradient id="paint0_linear_202_3711" x1="0" y1="30" x2="450" y2="30" gradientUnits="userSpaceOnUse">
<stop stop-color="white"/>
<stop offset="0.65" stop-color="#999999" stop-opacity="0.32"/>
</linearGradient>
</defs>
</svg>
